<?xml version="1.0" encoding="UTF-8" standalone="no"?>
<!DOCTYPE svg PUBLIC "-//W3C//DTD SVG 1.1//EN" "http://www.w3.org/Graphics/SVG/1.1/DTD/svg11.dtd">
<svg xmlns="http://www.w3.org/2000/svg" xmlns:xlink="http://www.w3.org/1999/xlink" version="1.1" width="51.14pt" height="7.47pt" viewBox="0 0 51.14 7.47">
<g enable-background="new">
<path transform="matrix(.00359712,0,0,-.00359712,0,7.47)" d="M 222.797 1948.73 L 222.797 1394.69 L 3.95313 1394.69 L 3.95313 1095.52 L 222.797 1095.52 L 222.797 65 L 533.063 65 L 533.063 1095.52 L 779.609 1095.52 L 779.609 1394.69 L 533.063 1394.69 L 533.063 1752.05 C 558 1760.36 588.469 1765.89 627.25 1765.89 C 682.656 1765.89 762.984 1754.81 848.859 1729.89 L 848.859 2040.14 C 762.984 2067.84 654.953 2076.16 599.547 2076.16 C 488.734 2076.16 330.844 2042.92 222.797 1948.73 " fill="#ffffff"/>
<path transform="matrix(.00359712,0,0,-.00359712,0,7.47)" d="M 1147.08 2059.53 L 1147.08 65 L 1462.88 65 L 1462.88 2059.53 L 1147.08 2059.53 " fill="#ffffff"/>
<path transform="matrix(.00359712,0,0,-.00359712,0,7.47)" d="M 1809.2 422.359 C 1809.2 167.5 2061.28 23.4531 2438.03 23.4531 C 2676.27 23.4531 2953.28 78.8438 3083.48 148.109 L 3083.48 771.391 C 3083.48 1281.11 2834.17 1380.84 2468.5 1380.84 C 2249.66 1380.84 2072.36 1344.83 1928.31 1286.66 L 1928.31 995.781 C 2100.06 1053.95 2274.59 1089.97 2440.8 1089.97 C 2631.94 1089.97 2728.91 1037.33 2756.61 873.891 C 2640.25 868.359 2510.06 862.813 2410.33 851.734 C 2033.58 815.719 1809.2 660.594 1809.2 422.359 Z M 2125 416.813 C 2125 502.688 2238.58 563.641 2410.33 583.031 C 2515.59 596.875 2648.56 605.188 2767.69 607.953 L 2767.69 339.25 C 2659.64 308.781 2554.38 297.703 2438.03 297.703 C 2266.28 297.703 2125 322.625 2125 416.813 " fill="#ffffff"/>
<path transform="matrix(.00359712,0,0,-.00359712,0,7.47)" d="M 4504.58 1001.33 L 4504.58 1283.88 C 4393.78 1328.2 4188.78 1380.84 4019.8 1380.84 C 3731.7 1380.84 3460.22 1300.5 3460.22 995.781 C 3460.22 630.125 4219.25 632.891 4219.25 452.828 C 4219.25 372.484 4150 306 3950.55 306 C 3753.86 306 3557.19 372.484 3410.36 447.281 L 3410.36 142.563 C 3551.64 81.625 3740.02 23.4531 3950.55 23.4531 C 4222.03 23.4531 4546.14 120.406 4546.14 452.828 C 4546.14 848.969 3787.11 801.875 3787.11 995.781 C 3787.11 1059.5 3870.22 1103.83 4019.8 1103.83 C 4188.78 1103.83 4393.78 1048.42 4504.58 1001.33 " fill="#ffffff"/>
<path transform="matrix(.00359712,0,0,-.00359712,0,7.47)" d="M 5188.03 2059.53 L 4872.22 2059.53 L 4872.22 65 L 5188.03 65 L 5188.03 1023.48 C 5290.52 1059.5 5393.02 1076.13 5487.2 1076.13 C 5681.13 1076.13 5888.88 1004.09 5897.19 594.109 C 5899.97 419.578 5899.97 294.922 5897.19 65 L 6213 65 C 6215.77 294.922 6215.77 419.578 6213 594.109 C 6204.69 1267.27 5775.31 1380.84 5487.2 1380.84 C 5379.17 1380.84 5279.44 1364.22 5188.03 1328.2 L 5188.03 2059.53 " fill="#ffffff"/>
<path transform="matrix(.00359712,0,0,-.00359712,0,7.47)" d="M 7664.06 954.234 L 7664.06 1275.58 C 7539.39 1342.06 7420.28 1380.84 7259.61 1380.84 C 6849.63 1380.84 6525.52 1125.98 6525.52 702.141 C 6525.52 281.078 6849.63 23.4531 7259.61 23.4531 C 7420.28 23.4531 7539.39 62.2344 7664.06 131.484 L 7664.06 461.141 C 7533.86 372.484 7398.13 328.172 7259.61 328.172 C 6977.05 328.172 6844.08 513.766 6844.08 702.141 C 6844.08 890.516 6977.05 1081.66 7259.61 1081.66 C 7398.13 1081.66 7533.86 1037.33 7664.06 954.234 " fill="#ffffff"/>
<path transform="matrix(.00359712,0,0,-.00359712,0,7.47)" d="M 7958.2 422.359 C 7958.2 167.5 8210.28 23.4531 8587.03 23.4531 C 8825.27 23.4531 9102.28 78.8438 9232.48 148.109 L 9232.48 771.391 C 9232.48 1281.11 8983.17 1380.84 8617.5 1380.84 C 8398.66 1380.84 8221.36 1344.83 8077.31 1286.66 L 8077.31 995.781 C 8249.06 1053.95 8423.59 1089.97 8589.8 1089.97 C 8780.94 1089.97 8877.91 1037.33 8905.61 873.891 C 8789.25 868.359 8659.06 862.813 8559.33 851.734 C 8182.58 815.719 7958.2 660.594 7958.2 422.359 Z M 8274 416.813 C 8274 502.688 8387.58 563.641 8559.33 583.031 C 8664.59 596.875 8797.56 605.188 8916.69 607.953 L 8916.69 339.25 C 8808.64 308.781 8703.38 297.703 8587.03 297.703 C 8415.28 297.703 8274 322.625 8274 416.813 " fill="#ffffff"/>
<path transform="matrix(.00359712,0,0,-.00359712,0,7.47)" d="M 9608.22 1211.86 L 9608.22 65 L 9924.03 65 L 9924.03 1031.8 C 9998.81 1056.73 10081.9 1070.58 10167.8 1070.58 C 10256.5 1070.58 10356.2 1053.95 10458.7 1023.48 L 10458.7 1342.06 C 10356.2 1372.53 10273.1 1380.84 10195.5 1380.84 C 10018.2 1380.84 9768.89 1336.52 9608.22 1211.86 " fill="#ffffff"/>
<path transform="matrix(.00359712,0,0,-.00359712,0,7.47)" d="M 11647 2059.53 L 11647 1350.36 C 11577.8 1372.53 11505.7 1380.84 11425.4 1380.84 C 11048.6 1380.84 10660.8 1181.39 10660.8 702.141 C 10660.8 225.672 11048.6 23.4531 11425.4 23.4531 C 11647 23.4531 11827.1 92.7031 11957.3 175.813 L 11957.3 2059.53 L 11647 2059.53 Z M 10982.2 702.141 C 10982.2 945.922 11142.8 1081.66 11425.4 1081.66 C 11503 1081.66 11577.8 1070.58 11647 1042.88 L 11647 350.328 C 11572.2 330.938 11494.6 322.625 11425.4 322.625 C 11142.8 322.625 10982.2 458.359 10982.2 702.141 " fill="#ffffff"/>
<path transform="matrix(.00359712,0,0,-.00359712,0,7.47)" d="M 13394.6 1001.33 L 13394.6 1283.88 C 13283.8 1328.2 13078.8 1380.84 12909.8 1380.84 C 12621.7 1380.84 12350.2 1300.5 12350.2 995.781 C 12350.2 630.125 13109.3 632.891 13109.3 452.828 C 13109.3 372.484 13040 306 12840.5 306 C 12643.9 306 12447.2 372.484 12300.4 447.281 L 12300.4 142.563 C 12441.6 81.625 12630 23.4531 12840.5 23.4531 C 13112 23.4531 13436.1 120.406 13436.1 452.828 C 13436.1 848.969 12677.1 801.875 12677.1 995.781 C 12677.1 1059.5 12760.2 1103.83 12909.8 1103.83 C 13078.8 1103.83 13283.8 1048.42 13394.6 1001.33 " fill="#ffffff"/>
<path transform="matrix(.00359712,0,0,-.00359712,0,7.47)" d="M 13946.1 -1.48438 L 14214.8 264.453 L 13946.1 530.391 L 13677.3 264.453 L 13946.1 -1.48438 Z M 13763.2 2004.13 L 13777.1 674.438 L 14120.6 674.438 L 14134.4 2004.13 L 13763.2 2004.13 " fill="#ffffff"/>
</g>
</svg>
