<?xml version="1.0" encoding="UTF-8" standalone="no"?>
<!--?xml version="1.0" encoding="utf-8"?-->

<!-- Generator: Adobe Illustrator 25.2.3, SVG Export Plug-In . SVG Version: 6.00 Build 0)  -->

<svg
   version="1.1"
   id="_x34_"
   x="0px"
   y="0px"
   viewBox="0 0 800 250"
   xml:space="preserve"
   sodipodi:docname="logo_kari.svg"
   inkscape:version="1.3.2 (091e20e, 2023-11-25, custom)"
   width="800"
   height="250"
   xmlns:inkscape="http://www.inkscape.org/namespaces/inkscape"
   xmlns:sodipodi="http://sodipodi.sourceforge.net/DTD/sodipodi-0.dtd"
   xmlns="http://www.w3.org/2000/svg"
   xmlns:svg="http://www.w3.org/2000/svg"><defs
   id="defs2" /><sodipodi:namedview
   id="namedview2"
   pagecolor="#505050"
   bordercolor="#ffffff"
   borderopacity="1"
   inkscape:showpageshadow="0"
   inkscape:pageopacity="0"
   inkscape:pagecheckerboard="1"
   inkscape:deskcolor="#505050"
   inkscape:zoom="1.0058594"
   inkscape:cx="389.7165"
   inkscape:cy="358.89708"
   inkscape:window-width="1920"
   inkscape:window-height="1009"
   inkscape:window-x="-4"
   inkscape:window-y="-4"
   inkscape:window-maximized="1"
   inkscape:current-layer="_x34_" />
<style
   type="text/css"
   id="style1">
	.st0{fill:#FFFFFF;}
</style>
<path
   style="font-size:233.129px;line-height:351.785px;font-family:'FOT-Matisse Pro';-inkscape-font-specification:'FOT-Matisse Pro';text-align:center;letter-spacing:-24.2843px;word-spacing:0px;text-orientation:upright;text-anchor:middle;fill:#ffffff;fill-opacity:0.214712;stroke-width:2.29458;stroke-linecap:round;stroke-linejoin:bevel;paint-order:fill markers stroke"
   d="m 199.69692,20.488429 c 0,-2.54761 -0.76799,-2.83068 -3.07199,-2.83068 h -47.80791 c -2.304,0 -3.072,0.28307 -3.072,2.83068 0,2.26455 0.768,2.83069 2.304,3.6799 13.24797,6.51058 17.85597,13.02117 17.85597,20.09789 0,1.69842 -0.192,3.11376 -0.576,4.52911 L 138.06503,167.96734 104.6571,32.943459 c -0.192,-1.13227 -0.384,-1.98148 -0.384,-2.83069 0,-3.39682 2.87999,-4.24603 10.36799,-5.66138 2.68799,-0.56613 3.07199,-1.69841 3.07199,-3.96296 0,-1.98147 -0.57601,-2.83068 -2.304,-2.83068 H 49.169209 c -1.727997,0 -2.111996,0.84921 -2.111996,3.39683 0,1.98147 0.383999,2.83068 1.919996,3.11375 5.951989,1.13227 12.863976,3.39682 14.591973,9.34127 L 116.75307,224.86418 c 1.34401,4.52911 4.992,9.62435 9.40799,9.62435 4.60799,0 8.25598,-4.5291 9.40799,-9.62435 L 176.27296,48.512259 c 1.92,-8.77514 9.40798,-18.68255 21.11996,-24.34393 1.53601,-0.84921 2.304,-1.41535 2.304,-3.6799 z m 80.03169,136.722281 c 0,-41.89419 -18.23997,-76.711661 -54.7199,-76.711661 -36.28793,0 -54.5279,34.817471 -54.5279,76.711661 0,41.89421 18.23997,76.42861 54.5279,76.42861 36.47993,0 54.7199,-34.5344 54.7199,-76.42861 z m -34.75194,13.87039 c 0,31.42064 -4.60799,45.85715 -15.55197,45.85715 -11.71198,0 -23.80795,-22.07937 -23.80795,-73.88098 0,-31.42064 4.60799,-45.857161 15.55196,-45.857161 14.20798,0 23.80796,30.571441 23.80796,73.880991 z m 156.83189,54.06615 c 0,-2.26455 -0.576,-2.83069 -2.11199,-3.11376 -6.14399,-0.8492 -12.09598,-2.83067 -14.20798,-7.64285 l -39.74392,-86.90216 14.97597,-18.68254 c 7.67998,-8.49207 15.74397,-14.719591 22.84795,-16.984141 2.112,-0.56614 2.688,-1.13228 2.688,-3.6799 0,-2.83068 -0.768,-2.83068 -3.264,-2.83068 h -41.08792 c -2.68799,0 -3.45599,0 -3.45599,2.83068 0,2.54762 0.57599,3.11376 2.68799,3.6799 5.37599,1.69841 8.44799,6.79365 8.44799,11.322761 0,1.69841 -0.384,3.67989 -1.536,5.09524 l -28.22395,35.10054 V 15.959319 c 0,-2.54761 -0.57599,-3.96295 -1.728,-3.96295 -0.192,0 -0.384,0 -0.57599,0 -13.82397,5.66138 -28.79995,11.32275 -42.81592,15.00265 -2.88,0.8492 -2.688,7.92593 0.576,7.92593 9.40798,0 9.40798,0.8492 9.40798,8.209 V 211.55995 c 0,7.64287 -3.64799,9.62434 -10.55998,10.75661 -1.152,0.28307 -2.112,0.84921 -2.112,3.39683 0,2.54762 0.576,3.11376 2.304,3.11376 h 55.87189 c 1.728,0 2.304,-0.56614 2.304,-3.11376 0,-2.54762 -0.96,-3.11376 -2.112,-3.39683 -6.52799,-1.13227 -11.32797,-3.11374 -11.32797,-10.75661 V 159.1922 l 2.30399,-1.98149 28.41595,66.5212 c 1.536,3.96296 2.112,5.09524 4.99199,5.09524 h 44.73592 c 1.91999,0 2.30399,-0.84921 2.30399,-3.6799 z m 88.672,-8.77512 c 0,-0.84921 -0.384,-1.69842 -0.768,-2.83069 -0.57599,-1.41535 -1.152,-1.98149 -1.536,-1.98149 -0.57599,0 -0.95999,0.56614 -1.72799,1.13228 -1.92,1.69841 -4.60799,3.11376 -6.71999,3.11376 -4.79999,0 -5.37599,-4.52911 -5.37599,-16.98414 V 138.2451 c 0,-33.6852 -12.86398,-57.746051 -45.50392,-57.746051 -28.41594,0 -45.31191,18.1164 -45.31191,40.478841 0,11.60583 5.18399,19.53176 13.43998,19.53176 8.25598,0 13.24797,-5.66138 13.24797,-15.56879 0,-9.34127 -2.304,-9.0582 -2.304,-16.70106 0,-6.51059 3.84,-11.322761 12.09598,-11.322761 10.17599,0 19.00797,10.756621 19.00797,40.478851 -7.48799,2.83069 -14.20798,4.81218 -20.15997,6.51059 -28.41594,7.92592 -38.39993,24.06086 -38.39993,52.93388 0,21.79632 10.75199,36.79896 25.72796,36.79896 17.27997,0 29.95194,-7.35979 35.90393,-20.38095 2.304,13.87037 8.25599,20.38095 20.73596,20.38095 9.98398,0 19.77596,-5.37831 26.30396,-13.87038 0.95999,-1.13226 1.34399,-2.26455 1.34399,-3.39681 z m -50.68791,-20.66404 c -3.26399,6.51059 -8.44798,9.62434 -13.24797,9.62434 -0.19199,0 -0.384,0 -0.384,0 -7.10399,0 -13.82397,-6.51058 -13.82397,-18.68255 0,-16.13492 4.22399,-23.77779 13.43997,-28.02382 4.032,-1.98148 8.44798,-2.26455 14.01597,-4.81216 z m 152.99164,-38.49738 c 0,-41.89419 -14.59198,-76.711661 -43.77592,-76.711661 -10.36798,0 -20.35197,5.37831 -25.72796,12.17195 v -76.71168 c 0,-2.54761 -0.576,-3.96295 -1.72799,-3.96295 -0.192,0 -0.384,0 -0.576,0 -13.82397,5.66138 -28.79995,11.32275 -42.81592,15.00265 -2.88,0.8492 -2.688,7.92593 0.576,7.92593 9.40798,0 9.40798,0.8492 9.40798,8.209 V 229.39329 c 0,2.54762 0.768,4.24603 1.728,4.24603 0.19199,0 0.38399,0 0.57599,-0.28307 11.13598,-7.35979 18.43197,-11.88889 27.64796,-18.1164 9.21598,12.73809 19.39196,18.39947 30.91194,18.39947 29.18394,0 43.77592,-34.5344 43.77592,-76.42861 z m -33.79195,15.28573 c 0,30.28837 -4.99198,43.02648 -15.55196,43.02648 -9.40799,0 -20.92797,-16.418 -20.92797,-45.5741 V 118.1472 c 2.112,-11.32275 6.14399,-16.70106 12.67198,-16.70106 13.82398,0 23.80795,28.87303 23.80795,71.0503 z m 131.67989,-24.91006 c 0,-33.11906 -18.23997,-67.087331 -48.95991,-67.087331 -29.75994,0 -52.7999,29.439161 -52.7999,76.428601 0,44.72489 19.58397,76.71167 54.52789,76.71167 22.65597,0 37.43994,-12.45503 43.00793,-35.94975 0.192,-1.13227 0.384,-2.26455 0.384,-3.11376 0,-1.13227 -0.192,-2.26455 -1.152,-3.39683 -0.768,-0.8492 -1.536,-1.41534 -2.112,-1.41534 -0.95999,0 -1.728,0.84921 -2.30399,1.98148 -6.33599,15.5688 -17.85597,23.21166 -27.07195,23.21166 -13.24797,0 -26.87995,-12.7381 -30.52794,-50.66934 l 64.70387,-7.35979 c 1.92,-0.28307 2.304,-2.83068 2.304,-9.34127 z m -30.91194,-4.81217 c 0,1.13227 -0.192,2.54762 -1.728,2.83069 l -35.13593,4.81217 c -0.19201,-2.54762 -0.19201,-4.81217 -0.19201,-7.3598 0,-35.38361 6.72,-46.423301 18.23998,-46.423301 8.83198,0 18.81596,24.343921 18.81596,45.007961 0,0.28307 0,0.56614 0,1.13228 z m 86.55995,82.93918 c 0,-2.54762 -0.95999,-3.11376 -2.112,-3.39683 -9.98397,-1.41534 -12.47997,-3.11374 -12.47997,-10.75661 V 15.959319 c 0,-2.54761 -0.576,-3.96295 -1.728,-3.96295 -0.192,0 -0.384,0 -0.576,0 -13.63197,5.66138 -29.37594,11.32275 -43.39191,15.00265 -1.344,0.28306 -2.112,1.98148 -2.112,3.96296 0,1.98148 0.95999,3.96297 2.688,3.96297 9.40798,0 9.40798,0.8492 9.40798,8.209 V 211.55995 c 0,7.64287 -2.496,9.34127 -12.47998,10.75661 -1.152,0.28307 -2.112,0.84921 -2.112,3.39683 0,2.54762 0.576,3.11376 2.304,3.11376 h 60.28789 c 1.728,0 2.30399,-0.56614 2.30399,-3.11376 z"
   id="text4"
   aria-label="Vokabel" />
<path
   style="font-size:85.3333px;line-height:128.765px;font-family:'Shippori Antique';-inkscape-font-specification:'Shippori Antique';text-align:center;letter-spacing:-6.9px;word-spacing:0px;text-orientation:upright;text-anchor:middle;fill:#ffffff;fill-opacity:1;stroke-width:1.88976;stroke-linecap:round;stroke-linejoin:bevel;paint-order:fill markers stroke"
   d="m 134.85042,122.28765 q 0,5.03467 0.42666,8.61866 0,0.59734 -0.42666,0.59734 -5.80267,-0.59734 -13.312,-0.59734 h -13.31199 v 6.74133 h 16.81066 q 7.85066,0 16.72533,-0.68266 0.256,0.512 0.256,4.352 0,3.92533 -0.256,4.43733 -6.656,-0.68267 -16.72533,-0.68267 h -16.81066 v 7.33866 q 0,3.66934 0.34133,7.25334 -0.0853,0.17066 -1.45066,0.256 -1.28,0.17066 -2.816,0.17066 -1.536,0 -2.90133,-0.17066 -1.36533,-0.0853 -1.450665,-0.256 0.341335,-3.584 0.341335,-7.25334 v -7.33866 H 83.821111 q -7.76533,0 -16.469326,0.68267 -0.256,-0.512 -0.256,-4.43733 0,-3.84 0.256,-4.352 6.570664,0.68266 16.469326,0.68266 h 16.469329 v -6.74133 H 87.575776 q -7.935996,0 -12.629328,0.512 -0.767999,0 -0.767999,-0.512 0.767999,-3.15733 0.767999,-11.17866 V 96.175659 h 7.338664 q -2.133332,-4.69333 -7.423997,-11.09333 l 6.741331,-3.072 q 2.389332,2.64534 4.778664,6.05867 2.389333,3.328 3.583999,5.80266 l -4.607998,2.304 h 16.725319 q -0.93866,-2.64533 -2.730658,-6.05866 -1.792,-3.49867 -3.754666,-6.31467 l 6.911994,-2.73066 q 2.13333,2.98666 4.18133,6.656 2.048,3.58399 2.98667,6.22933 l -5.376,2.21866 h 13.90933 q 2.21866,-3.072 4.60799,-7.25333 2.38934,-4.18133 3.84,-7.59466 3.328,1.024 6.22933,2.90133 2.90133,1.87733 2.304,2.64533 -0.42666,0.68267 -1.19466,0.93867 -0.68267,0.17067 -1.28,0.512 -0.59734,0.34133 -1.36534,1.62133 -1.62133,2.38933 -4.352,6.22933 h 7.85067 z M 82.541112,110.34099 h 17.749328 v -7.50933 H 82.541112 Z m 25.685318,0 h 18.68799 v -7.50933 h -18.68799 z m -7.93599,6.31466 H 82.541112 v 7.59467 h 17.749328 z m 7.93599,7.59467 h 18.68799 v -7.59467 h -18.68799 z m 78.34796,-1.10934 q -5.888,0 -11.69066,0.512 -0.256,-0.42666 -0.256,-4.01066 0,-3.66933 0.256,-3.75467 1.87733,0.256 5.20533,0.256 h 5.29067 q 1.024,-5.03466 1.96266,-10.83733 h -4.26666 q -1.45067,0 -4.18133,0.17067 -0.256,-0.17067 -0.256,-3.584 0,-3.498661 0.256,-3.584001 1.79199,0.256 4.77866,0.256 h 4.77866 q 0.0853,-0.93866 0.42667,-2.81599 l 0.59733,-4.69334 h -5.97333 q -2.98666,0 -5.97333,0.256 -0.256,-0.256 -0.256,-3.75466 0,-3.66933 0.256,-4.26667 8.53333,0.85334 20.56533,0.85334 h 10.32533 q 4.60799,0 10.32533,-0.42667 0.256,0.256 0.256,3.92533 0,3.49867 -0.256,3.92533 -3.92534,-0.512 -10.752,-0.512 h -10.83733 l -1.10933,7.50933 h 9.13066 q 5.46133,0 9.13066,-0.42666 0.42667,0 0.42667,0.42666 -0.42667,3.584001 -0.42667,8.789331 v 8.78933 h 3.66934 q 1.28,0 3.66933,-0.17066 0.256,0.0853 0.256,3.66933 0,3.584 -0.256,4.01066 -4.352,-0.512 -11.69066,-0.512 z M 166.17973,84.143669 q 2.98667,0 5.80267,-0.256 0.256,0.0853 0.256,3.328 0,3.15733 -0.256,3.41333 -2.21867,-0.256 -5.80267,-0.256 h -5.80266 q -5.80266,0 -11.52,0.512 -0.256,-0.42667 -0.256,-3.584 0,-3.328 0.256,-3.41333 2.048,0.256 5.71734,0.256 z m 1.10934,11.51999 q 2.64533,0 7.59466,-0.34133 0.256,0.256 0.256,3.49866 0,3.242671 -0.256,3.498671 -3.75466,-0.34133 -7.59466,-0.34133 h -7.68 q -7.168,0 -15.18933,0.68266 -0.256,-0.512 -0.256,-3.840001 0,-3.24266 0.256,-3.49866 3.75467,0.34133 7.59467,0.34133 z m 39.59465,20.479991 v -10.83733 h -11.94666 l -0.68267,3.75467 -1.19467,7.08266 z m -40.78932,-8.61866 q 2.90133,0 5.888,-0.256 0.256,0.0853 0.256,3.328 0,3.072 -0.256,3.328 -2.21867,-0.256 -5.888,-0.256 h -5.97333 q -5.888,0 -11.776,0.512 -0.25599,-0.42667 -0.25599,-3.584 0,-3.24267 0.25599,-3.328 2.13334,0.256 5.888,0.256 z m -11.86133,17.74933 q -2.98666,0 -5.888,0.256 -0.25599,-0.256 -0.25599,-3.328 0,-3.24267 0.25599,-3.584 4.352,0.512 11.776,0.512 h 5.97333 q 2.90133,0 5.888,-0.256 0.256,0.0853 0.256,3.328 0,3.072 -0.256,3.328 -2.21867,-0.256 -5.888,-0.256 z m 53.33331,3.41333 q 5.20533,0 8.87467,-0.42667 0.34133,0 0.34133,0.42667 -0.34133,3.75466 -0.34133,7.59466 v 7.68 q 0,9.30133 0.68266,15.27466 -0.59733,0.42667 -4.43733,0.42667 -1.45066,0 -2.64533,-0.17067 -1.19467,-0.0853 -1.28,-0.256 l 0.0853,-1.62133 V 155.9943 H 188.1957 v 1.792 l 0.0853,1.792 q 0,0.17067 -1.19467,0.256 -1.19466,0.17067 -2.64533,0.17067 -1.45067,0 -2.73067,-0.17067 -1.28,-0.0853 -1.53599,-0.256 0.68266,-6.144 0.68266,-15.44533 v -7.76533 q 0,-3.92533 -0.34133,-7.67999 0,-0.42667 0.34133,-0.42667 3.66933,0.42667 8.87466,0.42667 z m -59.39197,9.38666 q 0,-3.584 -0.34133,-7.168 0,-0.512 0.34133,-0.512 4.52266,0.512 12.11733,0.512 h 12.20266 v 12.544 q 0,7.85066 0.512,12.45866 0,0.42667 -0.512,0.42667 -3.584,-0.42667 -8.78933,-0.42667 h -8.78933 v 1.87733 l 0.0853,1.792 q 0,0.17067 -1.10933,0.256 -1.10933,0.17067 -2.38933,0.17067 -1.28,0 -2.47467,-0.17067 -1.10933,-0.0853 -1.19466,-0.256 0.34133,-3.584 0.34133,-7.168 z m 40.02132,10.83733 h 20.65065 v -13.05599 h -20.65065 z m -22.528,0.68267 v -12.288 h -10.75199 v 12.288 z m 69.9853,-45.39732 h -5.03466 v 19.02933 q 0,11.86133 0.768,18.94399 -0.42667,0.34133 -3.66933,0.34133 -3.072,0 -3.66933,-0.34133 0.85333,-9.38666 0.85333,-22.52799 V 97.114329 h 10.75199 v -7.85067 q 0,-3.58399 -0.34133,-8.19199 l 2.048,-0.0853 q 2.64533,0 4.864,0.34134 2.21866,0.256 2.21866,0.93866 -1.024,1.70667 -1.536,3.15734 -0.512,1.36533 -0.512,3.66933 v 8.02133 h 10.92267 v 36.778651 q 0,2.21867 -0.42667,3.66933 -0.42667,1.45067 -1.536,2.38933 -1.024,0.85334 -2.47466,1.10934 -1.36534,0.256 -3.75467,0.256 -0.17067,-1.45067 -0.768,-3.41334 -0.512,-1.96266 -1.28,-3.32799 1.87733,0.0853 3.84,0.0853 0.42667,-0.0853 0.512,-0.256 0.17067,-0.17067 0.17067,-0.68267 V 104.197 h -5.20534 v 29.86666 q 0,14.93332 0.85334,25.59999 -0.68267,0.42666 -4.18133,0.42666 -3.41334,0 -4.01067,-0.42666 0.59733,-5.97334 0.59733,-13.824 z m 51.19998,-19.455991 q 4.096,0 9.04533,-0.42667 0.256,0.256 0.256,3.75467 0,3.328 -0.256,3.84 -6.31466,-0.59734 -14.33599,-0.59734 h -14.336 v 5.29067 h 12.97067 q 5.37599,0 12.88532,-0.59733 0.256,0.34133 0.256,3.58399 0,3.157341 -0.256,3.669341 -5.54666,-0.59734 -12.88532,-0.59734 h -12.97067 v 5.46133 h 12.97067 q 5.37599,0 12.88532,-0.59733 0.256,0.34133 0.256,3.584 0,3.072 -0.256,3.584 -5.54666,-0.59734 -12.88532,-0.59734 h -12.97067 v 5.54667 h 16.04266 q 7.50933,0 15.95733,-0.68267 0.256,0.512 0.256,3.92533 0,3.328 -0.256,3.75467 -4.01066,-0.42667 -9.55733,-0.42667 h -9.55733 q 1.36534,5.376 3.75467,10.32533 6.91199,-5.12 10.41066,-8.87466 2.048,1.96266 3.584,4.43733 1.62133,2.38933 0.85333,2.98667 -0.42667,0.42666 -1.19466,0.42666 -0.85334,0 -1.536,0.17067 -0.59734,0.17067 -1.70667,1.10933 -2.56,2.048 -7.168,5.20533 5.376,7.68 13.824,10.83733 -1.19467,1.10933 -2.73067,3.15733 -1.536,2.048 -2.304,3.66934 -8.95999,-4.096 -14.42132,-12.45867 -5.376,-8.44799 -8.192,-20.99199 h -6.22933 v 23.21066 l 3.41333,-0.59733 10.496,-1.792 0.512,6.65599 q -19.54133,3.584 -27.73333,4.94934 l -1.62133,-6.99733 7.59466,-1.10934 v -24.31999 h -2.73066 q -0.93867,0 -2.64533,0.17067 -0.256,-0.17067 -0.256,-3.49867 0,-3.32799 0.256,-3.41333 1.36533,0.17067 2.73066,0.17067 h 2.73067 v -17.49333 q 0,-10.922661 -0.768,-17.407991 0,-0.42667 0.768,-0.42667 3.66933,0.42667 8.95999,0.42667 z m 75.53197,20.821321 q 2.38934,0 5.20534,1.536 2.81599,1.45067 4.69333,3.66934 1.87733,2.21866 1.87733,4.26666 0,1.45067 -1.024,2.47467 -0.93867,0.93866 -3.84,1.96266 -2.816,1.024 -8.61866,2.38933 -6.57067,1.536 -17.91999,6.4 -0.59734,2.98667 -0.68267,5.46133 0.0853,0.512 0.0853,1.536 v 0.85334 q 0,4.86399 -1.45066,6.39999 -1.45067,1.536 -2.816,1.536 -1.87733,0 -2.98667,-1.36533 -1.024,-1.45067 -1.024,-3.49867 0,-1.19466 0.34134,-4.77866 l 0.256,-2.304 q -3.84,2.21867 -6.82667,5.376 -2.98666,3.072 -2.98666,6.144 0,2.73066 3.15733,4.35199 3.24266,1.62134 10.32533,1.62134 2.56,0 4.864,-0.34134 2.30399,-0.34133 5.80266,-1.024 4.01067,-0.768 5.46133,-0.768 2.90133,0 4.52267,1.10934 1.70666,1.024 1.70666,2.90133 0,3.24266 -5.97333,4.608 -5.97333,1.45066 -12.20266,1.45066 -12.45866,0 -17.49333,-3.328 -4.94933,-3.32799 -4.94933,-9.04533 0,-5.80266 4.77867,-9.89866 4.86399,-4.096 10.15466,-6.656 l 0.0853,-3.07199 q 0,-3.584 -1.36533,-5.03467 -1.28,-1.536 -2.47467,-1.536 -3.15733,0 -6.91199,3.75467 -3.66933,3.66933 -6.22933,7.76533 -1.62134,2.64533 -3.584,2.64533 -1.36533,0 -2.90133,-1.10933 -1.536,-1.19467 -1.536,-3.15734 0,-2.21866 0.42666,-2.98666 0.42667,-0.85333 2.048,-2.304 2.64533,-2.21867 5.20533,-5.20533 3.072,-3.584 7.08267,-15.18933 -1.024,0.0853 -2.304,0.0853 -1.96267,0 -4.096,-0.68267 -2.048,-0.68267 -3.584,-1.792 -1.19467,-0.853331 -2.304,-2.389331 -1.024,-1.62134 -1.024,-2.38933 0,-0.256 0.0853,-0.34134 0.17066,-0.0853 0.42666,-0.0853 0.34134,0 2.56,0.59733 2.21867,0.512 4.52267,0.512 2.38933,0 7.85066,-0.93866 0.59733,-2.47467 0.59733,-4.52267 0,-2.73067 -1.36533,-4.18133 -0.59733,-0.68267 -1.536,-1.19467 -0.85333,-0.59733 -0.85333,-0.85333 0,-0.59733 1.536,-1.28 1.62133,-0.68267 3.92533,-0.68267 2.21866,0 4.352,1.19467 2.13333,1.19467 2.38933,3.24267 5.03466,1.10933 6.912,1.10933 2.81599,0 2.81599,2.38933 0,1.792 -1.96266,4.352 -1.87733,2.56 -7.33866,5.034661 -2.56,1.10934 -4.94934,1.70667 -1.96266,6.144 -5.11999,14.33599 2.816,-2.816 6.14399,-2.816 3.584,0 5.71733,2.73067 2.13334,2.73067 3.072,7.85066 1.792,-5.80266 5.46133,-9.98399 3.66934,-4.26667 7.936,-6.4 4.26667,-2.21867 7.85066,-2.21867 z M 335.761,88.922329 q -0.17067,1.024 -0.85334,2.64533 -0.59733,1.62134 -0.93866,2.38934 4.09599,-1.45067 4.09599,-2.98667 0,-0.768 -0.59733,-1.36533 -0.59733,-0.59734 -1.70666,-0.68267 z m 18.85865,28.757321 q 3.24267,-1.96266 5.888,-4.43733 2.73067,-2.47466 2.73067,-3.584 0,-0.512 -0.68267,-0.768 -0.59733,-0.256 -1.28,-0.256 -2.64533,0 -8.27733,3.75467 -5.71733,3.75466 -8.78933,11.17866 7.168,-3.92533 10.41066,-5.888 z m 43.87331,27.47732 q 0,8.10667 0.59733,14.336 -0.17067,0.17067 -1.62133,0.256 -1.36533,0.17067 -2.90133,0.17067 -4.096,0 -4.77867,-0.42667 0.85333,-9.38666 0.85333,-22.52799 v -22.52799 q -3.41333,4.77866 -6.91199,8.36266 -0.68267,-1.62133 -2.048,-4.26666 -1.36534,-2.64534 -2.304,-3.92534 5.97333,-5.97333 11.26399,-14.762661 5.29067,-8.78933 8.704,-18.17599 2.98667,0.93867 5.632,2.64533 2.73066,1.62134 2.38933,2.47467 -0.256,0.59733 -0.93867,0.93867 -0.68266,0.34133 -1.19466,0.76799 -0.512,0.42667 -1.024,1.792 -2.38933,5.54667 -5.71733,11.605331 z m 20.90666,-42.23998 q -5.46134,10.496 -11.43467,17.152 -0.93866,-1.024 -2.816,-2.73067 -1.87733,-1.792 -3.15733,-2.64533 5.46133,-5.80267 10.24,-14.42133 4.77866,-8.704001 7.85066,-18.005331 2.90133,0.85334 5.54667,2.21867 2.64533,1.36533 2.304,2.13333 -0.256,0.59734 -0.85334,0.93867 -0.512,0.256 -0.93866,0.68266 -0.34134,0.34134 -0.768,1.536 -0.85334,2.47467 -2.21867,5.54667 h 16.81066 q 7.936,0 16.81066,-0.68267 0.256,0.512 0.256,4.43733 0,3.925341 -0.256,4.352001 -4.608,-0.512 -12.37333,-0.512 h -12.37333 v 10.83733 h 11.34933 q 5.71733,0 11.34933,-0.512 0.256,0.34133 0.256,4.096 0,3.75466 -0.256,4.18133 -4.18133,-0.512 -11.34933,-0.512 h -11.34933 v 11.34933 h 11.94667 q 6.05866,0 11.94666,-0.512 0.256,0.34133 0.256,4.18133 0,3.84 -0.256,4.26667 -4.52267,-0.512 -11.94666,-0.512 h -11.94667 v 9.89866 q 0,5.80266 0.42667,9.89866 -0.0853,0.17067 -1.536,0.256 -1.36533,0.17067 -2.90133,0.17067 -1.536,0 -2.90133,-0.17067 -1.36534,-0.0853 -1.62134,-0.256 0.59734,-6.144 0.59734,-14.16533 v -42.49598 z m 84.32128,11.69066 q 6.656,0 11.008,2.64534 4.352,2.64533 6.31466,6.91199 2.048,4.26667 2.048,9.13067 0,6.39999 -3.66933,11.00799 -3.66933,4.52267 -9.64266,6.82667 -5.888,2.30399 -12.544,2.30399 -6.656,0 -10.83733,-2.47466 -4.096,-2.47467 -4.096,-6.31467 0,-2.13333 1.28,-4.09599 1.28,-2.048 3.49867,-3.328 2.21866,-1.28 4.94933,-1.28 4.01066,0 7.25333,2.816 3.24267,2.73066 5.376,6.99733 3.92533,-2.13333 6.4,-5.80267 2.47466,-3.75466 2.47466,-8.10666 0,-4.94933 -3.41333,-7.936 -3.41333,-2.98666 -8.53333,-2.98666 -4.26667,0 -10.41066,3.24266 -6.144,3.24267 -12.45866,14.42133 -0.68267,1.19467 -1.792,1.87733 -1.10934,0.59734 -2.38934,0.59734 -1.70666,0 -2.90133,-1.19467 -1.10933,-1.19467 -1.10933,-3.24267 0,-2.04799 0.93866,-3.49866 1.024,-1.45067 3.41334,-3.84 2.13333,-2.13333 3.49866,-3.66933 1.36533,-1.536 2.90133,-3.75467 3.92534,-5.37599 9.216,-13.73866 5.29066,-8.362661 6.912,-11.178661 0.59733,-1.10933 0.59733,-1.792 0,-0.68266 -0.34133,-1.024 -0.256,-0.42666 -0.768,-0.42666 -1.10934,0 -2.304,1.792 -2.13333,3.07199 -4.94933,5.802661 -2.816,2.64533 -5.376,2.64533 -1.62133,0 -3.24267,-1.28 -1.536,-1.36533 -2.55999,-3.413331 -0.93867,-2.048 -0.93867,-4.18133 0,-0.512 0.0853,-1.87733 0.17067,-1.36534 0.512,-1.36534 0.34134,0 1.70667,1.19467 0.512,0.42667 1.536,0.768 1.10933,0.34133 2.21866,0.34133 1.62134,0 4.43733,-1.45066 2.90134,-1.45067 5.54667,-3.84 1.792,-1.536 4.43733,-1.536 1.87733,0 4.26667,0.93866 2.47466,0.93867 4.18133,2.64534 1.792,1.62133 1.792,3.584 0,2.21866 -2.048,4.52266 -3.49867,4.010671 -8.02133,9.642661 -4.43733,5.632 -7.68,10.06933 3.15733,-2.048 6.31466,-3.072 3.15734,-1.024 6.912,-1.024 z m -7.33866,33.36532 q 1.28,0 1.87733,-0.0853 -1.19467,-2.304 -3.072,-4.01066 -1.792,-1.70667 -3.75466,-1.70667 -1.19467,0 -1.87734,0.768 -0.68266,0.768 -0.68266,1.536 0,1.792 2.47466,2.64533 2.56,0.85333 5.03467,0.85333 z m 113.07864,0.68267 q 1.62133,0.85333 4.52266,1.536 -0.42667,3.66933 -1.36533,5.54666 -0.85334,1.96267 -2.64533,2.73067 -1.70667,0.768 -4.77867,0.768 h -14.25066 q -4.352,0 -6.57066,-0.68267 -2.21867,-0.59733 -3.072,-2.304 -0.85334,-1.62133 -0.85334,-4.86399 v -10.06933 h -6.99733 q -1.70666,7.25333 -6.57066,11.60532 -4.77866,4.43734 -15.01866,6.99734 -0.512,-1.28 -1.87733,-3.24267 -1.28,-1.96267 -2.21867,-2.90133 8.704,-1.70667 12.62933,-4.608 4.01066,-2.98667 5.46133,-7.85066 h -9.55733 v -11.17867 q 0,-6.99733 -0.512,-11.09332 0,-0.34134 0.512,-0.34134 4.26667,0.34134 8.53333,0.34134 h 8.53333 q 1.87733,-3.15734 2.56,-5.03467 l 1.024,0.17067 q -2.304,-1.87734 -6.912,-4.864 v 3.584 q 0,1.87733 0.17067,3.584 -0.0853,0.34133 -2.98667,0.34133 -2.98666,0 -3.072,-0.34133 0.17067,-1.87734 0.17067,-3.84 v -3.92533 q -4.77866,5.03466 -9.89866,7.59466 -2.048,-3.072 -3.84,-4.43733 2.98667,-1.10933 5.97333,-3.15733 3.072,-2.048 5.46133,-4.52267 h -4.69333 q -2.304,0 -4.608,0.256 -0.256,-0.256 -0.256,-2.73066 0,-2.645341 0.256,-2.730671 2.21867,0.256 5.80267,0.256 h 5.80266 v -2.304 q 0,-0.768 -0.17067,-2.47466 h -14.25066 v 19.967991 q 0,30.80532 -8.19199,45.48265 -0.93867,-1.10934 -2.90133,-2.73067 -1.87734,-1.536 -2.98667,-2.13333 4.18133,-7.76533 5.54666,-18.09066 1.36534,-10.32533 1.36534,-22.52799 v -13.312 q 0,-7.509331 -0.59734,-13.311991 0,-0.68267 0.59734,-0.68267 5.97333,0.68267 15.27466,0.68267 h 15.35999 v -3.24267 q 0,-1.36533 -0.17067,-3.584 l 2.13334,-0.0853 q 2.816,0 5.11999,0.34133 2.304,0.256 2.304,0.93867 -0.68266,0.68267 -1.024,1.28 -0.34133,0.59733 -0.34133,1.536 v 2.816 h 15.70133 q 7.33866,0 15.70132,-0.68267 0.256,0.512 0.256,4.01067 0,3.49866 -0.256,4.01066 -4.26666,-0.512 -14.33599,-0.68266 1.96267,0.34133 1.96267,1.024 -1.024,0.85333 -1.024,1.87733 v 1.87733 h 6.14399 q 3.072,0 6.144,-0.256 0.256,0.0853 0.256,2.730671 0,2.47466 -0.256,2.73066 -1.792,-0.256 -4.864,-0.256 h -4.94933 q 2.304,2.304 5.46133,4.43733 3.24267,2.048 6.31467,3.328 -1.024,0.768 -2.21867,2.048 -1.10933,1.28 -1.792,2.47467 -2.47466,-1.36534 -5.20533,-3.41334 -2.73066,-2.13333 -5.03466,-4.52266 v 4.01066 q 0,2.048 0.17066,3.92534 -0.0853,0.34133 -3.072,0.34133 -2.98666,0 -3.07199,-0.34133 0.17066,-1.87734 0.17066,-3.84 v -3.84 q -4.608,4.864 -9.72799,7.50933 l -0.59734,-0.768 -1.45066,2.048 q -0.42667,0.42667 -1.10934,1.45067 h 19.11466 q 4.01067,0 6.31467,-0.256 0.512,0 0.512,0.256 -0.512,4.09599 -0.512,11.09332 v 11.17867 h -7.424 q -1.024,2.98666 -1.792,5.03466 l 5.71733,-0.17067 q -0.93866,-1.62133 -1.96266,-2.90133 l 4.26666,-1.45066 q 2.64533,3.15733 4.52267,6.82666 z m -32.25599,-34.38932 5.71733,0.85333 q -1.70667,-2.13333 -2.90133,-3.24266 2.98666,-1.10933 5.97333,-3.15733 2.98666,-2.13334 5.29066,-4.52267 h -4.01066 q -1.45067,0 -4.01067,0.17067 -0.256,-0.17067 -0.256,-2.64533 0,-2.645341 0.256,-2.730671 1.96267,0.256 5.12,0.256 h 5.20533 v -2.304 q 0,-0.768 -0.17066,-2.47466 h -24.31999 q 1.96266,0.34133 1.96266,1.024 -1.024,0.85333 -1.024,1.87733 v 1.87733 h 5.54667 q 2.816,0 5.46133,-0.256 0.256,0.0853 0.256,2.730671 0,2.47466 -0.256,2.73066 -2.048,-0.256 -5.46133,-0.256 h -5.54667 v 0.512 q 2.56,1.19467 6.05867,2.98667 3.58399,1.70666 4.77866,2.38933 z m -14.25066,13.824 h 14.42133 v -4.26667 h -14.42133 z m 36.09598,-4.26667 h -14.67732 v 4.26667 h 14.67732 z m -36.09598,12.71466 h 14.42133 v -4.352 h -14.42133 z m 36.09598,-4.352 h -14.67732 v 4.352 h 14.67732 z m 5.29067,21.58933 q 1.62133,0 2.304,-0.512 0.68266,-0.512 1.024,-2.21867 l -2.048,0.768 q -0.85334,-1.96266 -0.93867,-2.13333 -2.47466,0.256 -4.43733,0.42667 -1.96267,0.17066 -3.41333,0.34133 -4.52267,0.34133 -6.912,0.59733 l -0.59733,-4.43733 2.98666,-0.0853 q 0.85334,-3.072 1.28,-5.20533 h -6.39999 v 10.06933 q 0,1.53599 0.76799,1.96266 0.85334,0.42667 3.66934,0.42667 z m 58.37996,-30.12266 q -4.94933,13.14133 -9.98399,23.55199 l 25.34399,-1.45066 q -3.41334,-5.632 -7.76533,-11.09333 l 6.65599,-3.584 q 4.864,5.71733 9.216,12.544 4.43733,6.82666 6.48533,11.94666 l -7.33866,4.18133 q -0.93867,-2.90133 -3.15734,-6.99733 -7.93599,0.59733 -15.78666,1.19466 -7.85066,0.59734 -15.27466,1.10934 l -12.28799,0.93866 -1.10933,-8.02133 6.65599,-0.34133 q 2.47467,-5.12 4.864,-11.60533 2.47467,-6.48533 4.18133,-12.37333 h -7.93599 q -2.73067,0 -7.85067,0.34134 -0.256,-0.256 -0.256,-4.096 0,-3.92533 0.256,-4.26667 4.096,0.512 11.17866,0.512 h 11.17867 v -14.16532 h -9.13067 q -4.096,0 -9.04533,0.42666 -0.256,-0.42666 -0.256,-4.181331 0,-3.92533 0.256,-4.18133 3.66934,0.42667 9.04533,0.42667 h 9.13067 v -6.57067 q 0,-2.98666 -0.34134,-6.912 l 2.304,-0.0853 q 2.98667,0 5.376,0.34133 2.47467,0.256 2.47467,0.93867 -0.85334,1.536 -1.28,2.816 -0.42667,1.28 -0.42667,3.328 v 6.144 h 9.55733 q 4.18133,0 9.47199,-0.42667 0.256,0.256 0.256,4.18133 0,3.754671 -0.256,4.181331 -3.83999,-0.42666 -9.47199,-0.42666 h -9.55733 v 14.16532 h 11.51999 q 5.80267,0 11.43467,-0.512 0.256,0.34134 0.256,4.26667 0,3.84 -0.256,4.096 -3.41334,-0.34134 -7.08267,-0.34134 z M 628.33152,91.994329 q -4.864,-2.816 -8.78933,-4.352 l 4.26667,-5.888 q 4.26666,1.536 8.87466,4.01067 4.608,2.47466 7.25333,4.69333 l -4.52266,6.48533 q -2.21867,-2.048 -7.08267,-4.94933 z m -0.42666,16.383991 q 5.03466,2.38934 7.42399,4.18133 l -4.26666,6.74134 q -2.64533,-2.13334 -7.33867,-4.52267 -4.60799,-2.47467 -8.78933,-3.92533 l 4.01067,-6.144 q 4.52266,1.45067 8.96,3.66933 z m -2.98667,32.68266 q 4.26667,-7.59467 7.50933,-14.67733 2.64533,2.304 4.608,4.69333 2.048,2.304 1.62133,3.15733 -0.34133,0.59734 -1.024,0.93867 -0.59733,0.34133 -1.10933,0.768 -0.512,0.34133 -1.10933,1.70666 -5.632,11.69067 -11.09333,20.82133 l -6.656,-5.03467 q 3.84,-5.97333 7.25333,-12.37332 z m 82.01729,17.66399 q -3.584,0 -6.656,-1.792 -2.98666,-1.70667 -4.77866,-4.69333 -1.70667,-3.072 -1.70667,-6.57067 0,-3.58399 1.70667,-6.57066 1.792,-2.98666 4.77866,-4.69333 3.072,-1.792 6.656,-1.792 3.584,0 6.57066,1.792 2.98667,1.70667 4.69333,4.69333 1.792,2.98667 1.792,6.57066 0,3.584 -1.792,6.57067 -1.70666,2.98666 -4.77866,4.69333 -2.98667,1.792 -6.48533,1.792 z m 0,-4.01067 q 3.66933,0 6.31466,-2.64533 2.64533,-2.64533 2.64533,-6.4 0,-3.75466 -2.64533,-6.39999 -2.64533,-2.73067 -6.31466,-2.73067 -3.75467,0 -6.48533,2.73067 -2.64534,2.64533 -2.64534,6.39999 0,3.75467 2.64534,6.4 2.73066,2.64533 6.48533,2.64533 z"
   id="text2"
   aria-label="単語帳を作る魔法。" /><path
   d="m 188.41275,36.108389 q 2.24,0 4.06933,0.93333 1.82933,0.93334 1.82933,2.50133 0,0.56 -0.37333,0.85867 -0.336,0.26133 -0.82134,0.26133 -0.44799,0 -0.78399,-0.224 -0.29867,-0.224 -0.70934,-0.672 -0.784,-0.896 -1.97866,-1.82933 -1.15733,-0.93333 -2.05333,-1.30666 -0.0373,-0.0373 -0.18667,-0.0747 -0.14933,-0.0747 -0.14933,-0.18667 0,-0.26133 1.15733,-0.26133 z m -3.99466,5.97333 q 0.67199,0 1.75466,0.56 1.12,0.52266 1.94133,1.30666 0.82134,0.784 0.82134,1.41867 0,0.37333 -0.14934,0.56 -0.112,0.18667 -0.41066,0.41067 -0.672,0.48533 -0.85867,1.26933 -1.12,4.47999 -2.83733,7.76532 -1.68,3.248 -4.55466,5.86133 -2.87467,2.61333 -7.35466,4.592 -1.49334,0.672 -3.21067,1.26933 -1.68,0.59733 -2.09066,0.63467 h -0.112 q -0.336,0 -0.336,-0.224 0,-0.29867 0.70933,-0.59734 3.92,-1.79199 7.69066,-5.56266 3.808,-3.77066 5.86133,-9.66932 0.37333,-1.08267 0.74666,-2.576 0.41067,-1.49333 0.41067,-1.82933 0,-0.52267 -0.48533,-0.52267 -0.26134,0 -3.584,0.48533 -0.672,0.112 -3.136,0.48534 -2.46399,0.336 -3.88266,0.448 0.63467,4.36799 0.63467,5.30133 0,1.11999 -0.59734,1.97866 -0.59733,0.85867 -1.64266,0.85867 -0.59733,0 -1.232,-0.59734 -0.63467,-0.59733 -1.08267,-1.45599 -0.448,-0.896 -0.448,-1.68 0,-4.55467 -0.112,-5.264 -0.112,-0.74667 -0.672,-1.41866 -0.52266,-0.672 -1.11999,-1.04534 -0.224,-0.14933 -0.52267,-0.26133 -0.29867,-0.112 -0.29867,-0.224 0,-0.336 0.63467,-0.74667 0.63466,-0.41066 1.19466,-0.41066 0.97067,0 2.09067,0.41066 1.12,0.37334 1.86666,1.008 0.896,-0.0747 4.10667,-0.37333 l 0.0373,-1.60533 q 0,-1.344 -0.336,-2.128 -0.29867,-0.82133 -1.41866,-1.568 -0.37334,-0.224 -0.37334,-0.448 0,-0.41066 0.97067,-0.74666 1.008,-0.336 1.904,-0.336 1.68,0 2.72533,0.59733 1.08266,0.59733 1.08266,1.97866 0,0.59734 -0.224,1.344 -0.29866,0.896 -0.29866,1.71733 0,0.48534 0.0373,0.70934 3.21066,-0.41067 3.92,-0.63467 0.48533,-0.18667 0.97066,-0.52267 0.672,-0.52266 1.26934,-0.52266 z m 0.82133,-3.06133 q 1.30666,0 2.8,0.48533 1.49333,0.448 2.50133,1.344 1.04533,0.85867 1.04533,1.97866 0,0.63467 -0.37333,0.97067 -0.37334,0.29867 -0.85867,0.29867 -0.48533,0 -0.784,-0.26134 -0.29867,-0.26133 -0.63466,-0.784 -0.672,-1.08266 -1.53067,-1.86666 -0.85867,-0.82133 -2.20267,-1.71733 -0.33599,-0.224 -0.33599,-0.336 0,-0.112 0.37333,-0.112 z m 86.1013,11.49865 q 0.336,0 1.008,0.26134 0.672,0.224 1.19466,0.74666 0.56,0.48534 0.56,1.232 0,0.70934 -0.48533,1.04534 -0.448,0.29866 -1.904,0.29866 l -1.60533,-0.0373 q -0.74667,0 -2.53867,0.0747 0.18667,3.58399 0.70934,7.72799 0.26133,2.53866 0.26133,3.024 0,1.34399 -0.59733,2.23999 -0.59734,0.93334 -1.53067,0.93334 -0.784,0 -1.19466,-0.59734 -0.41067,-0.56 -0.63467,-1.12 -0.18667,-0.59733 -0.26133,-0.78399 -0.224,-0.56 -1.12,-1.38134 -0.85867,-0.85866 -1.64267,-1.41866 -0.224,-0.18667 -0.224,-0.336 0,-0.29867 0.448,-0.29867 0.26133,0 1.19467,0.18667 1.344,0.224 1.64266,0.224 0.18667,0 0.224,-0.0747 0.0747,-0.112 0.0747,-0.41066 l -0.18667,-4.55467 q -1.38133,1.97867 -3.50933,3.696 -2.09066,1.71733 -4.25599,2.912 -2.16534,1.15733 -3.77067,1.64266 -0.59733,0.14934 -0.74666,0.14934 -0.29867,0 -0.29867,-0.14934 0,-0.224 0.29867,-0.41066 6.57066,-4.592 9.14666,-10.67733 l -0.52267,0.0747 q -0.85867,0.112 -2.05333,0.448 -0.85867,0.26133 -1.26933,0.26133 -0.93334,0 -1.68,-0.784 -0.74667,-0.82133 -1.15734,-1.792 -0.41066,-1.008 -0.41066,-1.38133 0,-0.336 0.26133,-0.336 0.0747,0 1.15733,0.41067 1.12,0.41066 2.20267,0.41066 l 6.30933,-0.448 q -0.112,-1.08266 -0.112,-1.75466 l -0.0747,-0.82133 q -0.112,-0.97067 -1.86667,-1.97867 -0.52266,-0.29867 -0.52266,-0.52266 0,-0.29867 0.93333,-0.56 0.93333,-0.29867 1.64267,-0.29867 1.19466,0 2.42666,0.70933 1.26933,0.70933 1.26933,1.568 0,0.336 -0.336,1.19467 -0.0373,0.14933 -0.14933,0.448 -0.112,0.26133 -0.112,0.448 -0.0373,0.37333 -0.0373,1.23199 v 0.0747 l 1.008,-0.14933 0.97066,-0.224 q 1.344,-0.37334 1.86667,-0.37334 z m 87.89329,-5.37599 q 0.59734,0 1.60534,0.70933 1.008,0.672 1.79199,1.60533 0.82134,0.896 0.82134,1.49334 0,0.63466 -0.82134,1.45599 -0.44799,0.448 -0.67199,1.08267 -0.224,0.63467 -0.48534,1.71733 -0.224,1.008 -1.04533,3.584 -0.784,2.53866 -1.94133,5.07733 -1.12,2.50133 -2.24,3.36 -0.896,0.672 -1.53067,0.97066 -0.59733,0.26133 -1.15733,0.26133 -1.12,0 -1.49333,-0.44799 -0.336,-0.448 -0.48533,-1.38134 -0.14934,-0.896 -0.336,-1.26933 -0.14934,-0.37333 -1.15733,-1.344 -1.008,-1.008 -1.82934,-1.60533 -0.26133,-0.14933 -0.26133,-0.29867 0,-0.112 0.14933,-0.112 l 0.29867,0.0747 q 0.784,0.336 2.20266,0.784 1.456,0.448 2.31467,0.448 0.74667,0 1.30667,-0.59733 0.59733,-0.63467 1.15733,-1.94134 0.784,-1.90399 1.64266,-4.96532 0.896,-3.06134 0.896,-3.73333 0,-0.56 -0.448,-0.56 -0.37333,0 -5.56266,0.70933 -2.128,5.93599 -5.48799,9.37066 -3.32267,3.39733 -6.12267,4.70399 -2.76266,1.30667 -3.47199,1.30667 -0.18667,0 -0.18667,-0.112 0,-0.14933 0.37333,-0.37333 3.32267,-1.97867 5.936,-5.86133 2.65066,-3.88267 4.25599,-8.288 0,0 -0.74666,0.14934 l -1.30667,0.41066 q -0.70933,0.224 -1.456,0.448 -0.70933,0.18667 -1.23199,0.18667 -1.232,0 -2.24,-1.04533 -0.97067,-1.08267 -1.568,-2.352 -0.56,-1.30667 -0.56,-1.68 0,-0.29867 0.26133,-0.29867 0.112,0 0.63467,0.224 0.56,0.18667 1.344,0.336 0.784,0.14934 1.75466,0.14934 0.784,0 4.40533,-0.18667 l 1.82933,-0.112 q 0.48534,-2.352 0.48534,-3.696 0,-1.90399 -1.53067,-3.02399 -0.112,-0.0747 -0.29867,-0.18667 -0.18666,-0.112 -0.18666,-0.26133 0,-0.41067 1.04533,-0.63467 1.04533,-0.224 2.16533,-0.224 1.71733,0 3.248,0.82133 1.53066,0.784 1.53066,1.86667 0,0.37333 -0.14933,0.672 -0.112,0.26133 -0.37333,0.63466 -0.336,0.56 -0.56,1.04534 -0.224,0.48533 -0.41067,1.232 l -0.336,1.41866 q 2.464,-0.14933 3.50933,-0.336 0.56,-0.112 0.85867,-0.29866 0.336,-0.224 0.784,-0.56 0.52266,-0.52267 1.08266,-0.52267 z m 62.992,4.55466 q 0.18667,0 0.448,0.26134 0.29867,0.26133 0.448,0.37333 0.59734,0.448 1.456,0.59733 0.85867,0.112 2.16533,0.112 h 1.568 q 4.62933,0 9.14666,-0.0373 4.55466,-0.0747 7.80266,-0.112 l 5.18933,-0.0747 q 2.31467,0 3.50933,0.59733 1.232,0.59734 1.232,1.68 0,1.04534 -1.008,1.41867 -1.008,0.336 -2.8,0.336 l -2.72533,-0.0373 q -5.33866,0 -12.50665,0.112 -7.168,0.112 -7.952,0.224 -1.04533,0.224 -0.97066,0.18667 -0.97067,0.14933 -1.15734,0.14933 -0.82133,0 -1.86666,-0.59733 -1.04533,-0.59733 -1.792,-1.568 -0.74666,-1.008 -0.74666,-2.128 0,-0.448 0.11199,-0.97066 0.14934,-0.52267 0.448,-0.52267 z m 116.86393,-3.65866 q -0.41067,0 -0.672,-0.14933 -0.224,-0.18667 -0.70933,-0.672 -1.12,-1.008 -2.016,-1.53067 -0.896,-0.52267 -2.38933,-1.08267 -0.37334,-0.11199 -0.37334,-0.26133 0,-0.18666 0.82134,-0.26133 0.85866,-0.112 1.568,-0.112 2.05333,0 3.47199,0.82133 1.456,0.784 1.456,2.16533 0,0.52267 -0.336,0.82134 -0.336,0.26133 -0.82133,0.26133 z m -4.21866,2.76266 q -1.26934,-1.71733 -4.032,-3.28533 -0.29867,-0.18666 -0.29867,-0.29866 0,-0.14934 0.59734,-0.14934 2.46399,0 4.40532,0.85867 1.94134,0.85866 1.94134,2.61333 0,0.56 -0.37334,0.896 -0.336,0.336 -0.784,0.336 -0.448,0 -0.74666,-0.224 -0.26133,-0.224 -0.70933,-0.74667 z m 3.80799,12.50666 q -1.94133,0 -5.71199,-2.98667 -3.77067,-3.02399 -8.36266,-7.16799 -0.56,-0.56 -1.08267,-1.008 -0.56,-0.48533 -1.26933,-0.48533 -0.672,0 -1.26933,0.52267 -0.70934,0.63466 -2.53867,2.50133 -1.792,1.82933 -2.352,2.61333 -1.04533,1.456 -2.20266,1.456 -0.59733,0 -1.53067,-0.56 -0.89599,-0.56 -1.60533,-1.75467 -0.70933,-1.232 -0.70933,-3.06133 0,-0.70933 0.41067,-0.70933 0.18666,0 0.37333,0.224 0.56,0.74666 1.75466,0.74666 0.85867,0 3.21067,-1.71733 2.352,-1.75466 3.696,-3.09866 1.26933,-1.30667 2.65066,-1.30667 1.26933,0 2.27733,0.93334 2.94933,2.72533 6.86933,5.45066 3.92,2.72533 6.64533,3.95733 1.38133,0.63466 1.97866,1.008 0.63467,0.37333 0.97067,0.896 0.336,0.52266 0.336,1.34399 0,0.97067 -0.74667,1.60534 -0.70933,0.59733 -1.792,0.59733 z m 76.95466,0.41067 q -0.63467,0 -1.08267,-0.336 -0.41066,-0.336 -1.08266,-1.15734 -0.41067,-0.448 -0.41067,-1.232 0,-0.784 0.336,-1.71733 0.112,-0.26133 0.112,-1.232 l -0.0373,-3.54666 q 0,-1.30667 0.0373,-2.05333 l 0.0373,-2.27733 q 0,-0.85867 -0.0747,-1.75467 -0.0747,-0.82133 -0.48534,-1.30666 -0.37333,-0.52267 -0.896,-0.93334 -0.52266,-0.41066 -0.52266,-0.56 0,-0.37333 0.97066,-0.672 1.008,-0.29866 1.82934,-0.29866 1.04533,0 2.05333,0.41066 1.008,0.37334 1.64266,1.008 0.63467,0.59734 0.63467,1.232 0,0.37334 -0.37333,0.97067 -0.448,0.59733 -0.52267,1.12 -0.112,0.672 -0.224,3.32266 -0.112,2.61333 -0.112,3.95733 0,0.336 0.0747,0.56 0.0747,0.224 0.336,0.224 1.04533,0 3.80799,-1.60533 2.8,-1.60533 5.67466,-3.584 2.87467,-1.97866 3.65867,-2.61333 0.18666,-0.14933 0.336,-0.14933 0.14933,0 0.14933,0.112 0,0.0747 -0.112,0.29866 -1.49333,2.72533 -4.368,5.56267 -2.87466,2.79999 -5.63732,4.89066 -2.76267,2.09066 -3.88267,2.688 -1.30666,0.672 -1.86666,0.672 z m -17.77065,3.24799 q -0.14934,0 -0.14934,-0.112 0,-0.14933 0.37334,-0.48533 2.27733,-2.016 4.03199,-5.30133 1.792,-3.28533 2.72533,-6.68266 0.97067,-3.39733 0.97067,-5.712 0,-0.48533 -0.26133,-0.82133 -0.26134,-0.37333 -0.74667,-0.82133 -0.0747,-0.0747 -0.336,-0.29867 -0.26133,-0.26133 -0.26133,-0.52266 0,-0.336 1.41866,-0.336 1.568,0 2.72533,0.70933 1.19467,0.672 1.82934,1.568 0.67199,0.896 0.67199,1.41866 0,0.336 -0.18666,0.56 -0.18667,0.224 -0.224,0.29867 -0.672,0.74667 -0.896,1.64267 -1.41867,5.48799 -3.99466,8.81065 -2.53867,3.28533 -4.816,4.704 -2.24,1.38133 -2.87466,1.38133 z"
   id="text3"
   style="font-size:37.3333px;line-height:56.3347px;font-family:'Shippori Antique';-inkscape-font-specification:'Shippori Antique';text-align:center;letter-spacing:50px;word-spacing:0px;text-orientation:upright;text-anchor:middle;fill:#ffffff;fill-opacity:1;stroke-width:1.88976;stroke-linecap:round;stroke-linejoin:bevel;paint-order:fill markers stroke"
   aria-label="ヴォカーベル" /></svg>
